<?xml version="1.0" encoding="UTF-8"?>
<svg xmlns="http://www.w3.org/2000/svg" xmlns:xlink="http://www.w3.org/1999/xlink" width="20pt" height="20pt" viewBox="0 0 20 20" version="1.1">
<g id="surface4152413">
<path style=" stroke:none;fill-rule:nonzero;fill:rgb(100%,100%,100%);fill-opacity:1;" d="M 6.398438 1.199219 C 3.53125 1.199219 1.199219 3.53125 1.199219 6.398438 L 1.199219 13.601562 C 1.199219 16.46875 3.53125 18.800781 6.398438 18.800781 L 13.601562 18.800781 C 16.46875 18.800781 18.800781 16.46875 18.800781 13.601562 L 18.800781 6.398438 C 18.800781 3.53125 16.46875 1.199219 13.601562 1.199219 Z M 14.800781 4.398438 C 15.238281 4.398438 15.601562 4.761719 15.601562 5.199219 C 15.601562 5.640625 15.238281 6 14.800781 6 C 14.359375 6 14 5.640625 14 5.199219 C 14 4.761719 14.359375 4.398438 14.800781 4.398438 Z M 10 5.601562 C 12.429688 5.601562 14.398438 7.570312 14.398438 10 C 14.398438 12.429688 12.429688 14.398438 10 14.398438 C 7.570312 14.398438 5.601562 12.429688 5.601562 10 C 5.601562 7.570312 7.570312 5.601562 10 5.601562 Z M 10 6.398438 C 8.015625 6.398438 6.398438 8.015625 6.398438 10 C 6.398438 11.984375 8.015625 13.601562 10 13.601562 C 11.984375 13.601562 13.601562 11.984375 13.601562 10 C 13.601562 8.015625 11.984375 6.398438 10 6.398438 Z M 10 6.398438 "/>
</g>
</svg>
