<?xml version="1.0" encoding="UTF-8"?>
<svg xmlns="http://www.w3.org/2000/svg" xmlns:xlink="http://www.w3.org/1999/xlink" width="20pt" height="20pt" viewBox="0 0 20 20" version="1.1">
<g id="surface4152556">
<path style=" stroke:none;fill-rule:nonzero;fill:rgb(100%,100%,100%);fill-opacity:1;" d="M 10 0.800781 C 4.925781 0.800781 0.800781 4.925781 0.800781 10 C 0.800781 15.074219 4.925781 19.199219 10 19.199219 C 15.074219 19.199219 19.199219 15.074219 19.199219 10 C 19.199219 4.925781 15.074219 0.800781 10 0.800781 Z M 11.015625 13.085938 C 9.699219 13.085938 9.210938 12.230469 9.210938 12.230469 C 9.210938 12.230469 8.976562 13.15625 8.800781 13.8125 C 8.628906 14.46875 8.597656 14.476562 8.429688 14.847656 C 8.242188 15.265625 7.78125 15.917969 7.644531 16.121094 C 7.535156 16.28125 7.402344 16.414062 7.324219 16.398438 C 7.246094 16.382812 7.246094 16.300781 7.226562 16.125 C 7.199219 15.890625 7.121094 15.089844 7.160156 14.546875 C 7.183594 14.195312 7.304688 13.601562 7.304688 13.601562 L 8.195312 9.957031 C 7.648438 8.835938 8.097656 7.078125 9.34375 7.078125 C 10.226562 7.078125 10.460938 7.878906 10.1875 8.84375 C 10.070312 9.273438 9.691406 10.476562 9.679688 10.53125 C 9.667969 10.589844 9.640625 10.707031 9.644531 10.828125 C 9.644531 11.179688 9.914062 11.894531 10.84375 11.894531 C 12.339844 11.894531 13.050781 9.683594 13.050781 8.203125 C 13.050781 7.011719 12.292969 5.570312 10.085938 5.570312 C 7.832031 5.570312 6.589844 7.285156 6.589844 8.859375 C 6.589844 9.738281 6.941406 10.09375 7.101562 10.289062 C 7.230469 10.445312 7.164062 10.597656 7.164062 10.597656 L 7.023438 11.167969 C 6.972656 11.355469 6.804688 11.453125 6.566406 11.316406 C 6.328125 11.179688 5.199219 10.699219 5.199219 8.660156 C 5.199219 6.566406 7.171875 4.398438 10.226562 4.398438 C 12.65625 4.398438 14.800781 5.925781 14.800781 8.402344 C 14.800781 11.453125 12.894531 13.085938 11.015625 13.085938 Z M 11.015625 13.085938 "/>
</g>
</svg>
