<?xml version="1.0" encoding="UTF-8"?>
<svg xmlns="http://www.w3.org/2000/svg" xmlns:xlink="http://www.w3.org/1999/xlink" width="20pt" height="20pt" viewBox="0 0 20 20" version="1.1">
<g id="surface4152031">
<path style=" stroke:none;fill-rule:nonzero;fill:rgb(100%,100%,100%);fill-opacity:1;" d="M 14.800781 1.199219 L 5.199219 1.199219 C 2.996094 1.199219 1.199219 2.996094 1.199219 5.199219 L 1.199219 14.800781 C 1.199219 17.003906 2.996094 18.800781 5.199219 18.800781 L 14.800781 18.800781 C 17.003906 18.800781 18.800781 17.003906 18.800781 14.800781 L 18.800781 5.199219 C 18.800781 2.996094 17.003906 1.199219 14.800781 1.199219 Z M 14.496094 8.191406 C 14.5 8.285156 14.5 8.382812 14.5 8.480469 C 14.5 11.414062 12.273438 14.800781 8.195312 14.800781 C 6.945312 14.800781 5.78125 14.433594 4.800781 13.800781 C 4.972656 13.824219 5.148438 13.832031 5.328125 13.832031 C 6.367188 13.832031 7.324219 13.476562 8.078125 12.882812 C 7.109375 12.863281 6.292969 12.222656 6.011719 11.339844 C 6.144531 11.363281 6.285156 11.378906 6.425781 11.378906 C 6.628906 11.378906 6.824219 11.351562 7.011719 11.300781 C 5.996094 11.097656 5.234375 10.199219 5.234375 9.121094 C 5.234375 9.113281 5.234375 9.105469 5.234375 9.09375 C 5.53125 9.261719 5.875 9.359375 6.238281 9.371094 C 5.644531 8.972656 5.253906 8.292969 5.253906 7.523438 C 5.253906 7.117188 5.359375 6.734375 5.550781 6.40625 C 6.644531 7.75 8.277344 8.636719 10.121094 8.726562 C 10.082031 8.566406 10.0625 8.394531 10.0625 8.222656 C 10.0625 6.996094 11.054688 6 12.277344 6 C 12.914062 6 13.488281 6.269531 13.894531 6.703125 C 14.398438 6.601562 14.875 6.417969 15.300781 6.164062 C 15.136719 6.679688 14.785156 7.117188 14.328125 7.390625 C 14.773438 7.335938 15.203125 7.21875 15.597656 7.042969 C 15.304688 7.488281 14.925781 7.878906 14.496094 8.191406 Z M 14.496094 8.191406 "/>
</g>
</svg>
